<svg width="26" height="20" viewBox="0 0 26 20" fill="none" xmlns="http://www.w3.org/2000/svg">
    <path d="M21.4286 17.1429V17.8571C21.4286 19.0406 20.4692 20 19.2857 20H2.14286C0.959375 20 0 19.0406 0 17.8571V6.42857C0 5.24509 0.959375 4.28571 2.14286 4.28571H2.85714V13.5714C2.85714 15.5407 4.45929 17.1429 6.42857 17.1429H21.4286ZM25.7143 13.5714V2.14286C25.7143 0.959375 24.7549 0 23.5714 0H6.42857C5.24509 0 4.28571 0.959375 4.28571 2.14286V13.5714C4.28571 14.7549 5.24509 15.7143 6.42857 15.7143H23.5714C24.7549 15.7143 25.7143 14.7549 25.7143 13.5714ZM11.4286 4.28571C11.4286 5.4692 10.4692 6.42857 9.28571 6.42857C8.10223 6.42857 7.14286 5.4692 7.14286 4.28571C7.14286 3.10223 8.10223 2.14286 9.28571 2.14286C10.4692 2.14286 11.4286 3.10223 11.4286 4.28571ZM7.14286 10.7143L9.6212 8.23594C9.8304 8.02674 10.1696 8.02674 10.3788 8.23594L12.1429 10L18.1926 3.95022C18.4018 3.74103 18.741 3.74103 18.9503 3.95022L22.8571 7.85714V12.8571H7.14286V10.7143Z" fill="#CCCCCC"/>
</svg>