<svg viewBox="0 0 21 21" fill="none" xmlns="http://www.w3.org/2000/svg">
<path d="M17.0002 13.0001C16.4093 13.004 15.8267 13.1388 15.2942 13.3947C14.7616 13.6506 14.2924 14.0213 13.9202 14.4801L8.82015 12.1301C9.05994 11.3959 9.05994 10.6044 8.82015 9.87011L13.9202 7.52011C14.5218 8.24608 15.3605 8.73619 16.2883 8.90395C17.2161 9.07172 18.1734 8.90634 18.9911 8.43702C19.8088 7.96769 20.4345 7.22459 20.7577 6.33886C21.0809 5.45312 21.0808 4.4817 20.7575 3.59602C20.4341 2.71035 19.8083 1.96736 18.9905 1.49818C18.1726 1.02901 17.2154 0.863808 16.2876 1.03174C15.3598 1.19967 14.5212 1.68993 13.9197 2.41601C13.3182 3.14208 12.9925 4.05729 13.0002 5.00011C13.0032 5.23835 13.0266 5.47588 13.0702 5.71011L7.79015 8.14011C7.22723 7.58969 6.5144 7.21763 5.74096 7.07054C4.96752 6.92345 4.16787 7.00788 3.4422 7.31325C2.71653 7.61861 2.09711 8.13133 1.66155 8.78718C1.22599 9.44302 0.993652 10.2128 0.993652 11.0001C0.993652 11.7874 1.22599 12.5572 1.66155 13.2131C2.09711 13.8689 2.71653 14.3816 3.4422 14.687C4.16787 14.9923 4.96752 15.0768 5.74096 14.9297C6.5144 14.7826 7.22723 14.4105 7.79015 13.8601L13.0702 16.2901C13.0266 16.5243 13.0032 16.7619 13.0002 17.0001C13.0002 17.7912 13.2347 18.5646 13.6743 19.2224C14.1138 19.8802 14.7385 20.3929 15.4694 20.6956C16.2003 20.9984 17.0046 21.0776 17.7805 20.9233C18.5564 20.7689 19.2692 20.388 19.8286 19.8285C20.388 19.2691 20.769 18.5564 20.9233 17.7805C21.0776 17.0046 20.9984 16.2003 20.6957 15.4694C20.3929 14.7385 19.8802 14.1138 19.2224 13.6742C18.5646 13.2347 17.7913 13.0001 17.0002 13.0001ZM17.0002 3.00011C17.3957 3.00011 17.7824 3.11741 18.1113 3.33718C18.4402 3.55694 18.6965 3.8693 18.8479 4.23475C18.9993 4.6002 19.0389 5.00233 18.9617 5.3903C18.8846 5.77826 18.6941 6.13462 18.4144 6.41433C18.1347 6.69403 17.7783 6.88451 17.3903 6.96169C17.0024 7.03886 16.6002 6.99925 16.2348 6.84787C15.8693 6.6965 15.557 6.44015 15.3372 6.11125C15.1174 5.78236 15.0002 5.39568 15.0002 5.00011C15.0002 4.46968 15.2109 3.96097 15.5859 3.5859C15.961 3.21083 16.4697 3.00011 17.0002 3.00011ZM5.00015 13.0001C4.60459 13.0001 4.21791 12.8828 3.88901 12.6631C3.56011 12.4433 3.30377 12.1309 3.15239 11.7655C3.00102 11.4 2.96141 10.9979 3.03858 10.6099C3.11575 10.222 3.30623 9.86561 3.58594 9.5859C3.86564 9.3062 4.22201 9.11571 4.60997 9.03854C4.99793 8.96137 5.40006 9.00098 5.76552 9.15236C6.13097 9.30373 6.44333 9.56008 6.66309 9.88897C6.88285 10.2179 7.00015 10.6046 7.00015 11.0001C7.00015 11.5305 6.78944 12.0393 6.41436 12.4143C6.03929 12.7894 5.53058 13.0001 5.00015 13.0001ZM17.0002 19.0001C16.6046 19.0001 16.2179 18.8828 15.889 18.6631C15.5601 18.4433 15.3038 18.1309 15.1524 17.7655C15.001 17.4 14.9614 16.9979 15.0386 16.6099C15.1158 16.222 15.3062 15.8656 15.5859 15.5859C15.8656 15.3062 16.222 15.1157 16.61 15.0385C16.9979 14.9614 17.4001 15.001 17.7655 15.1524C18.131 15.3037 18.4433 15.5601 18.6631 15.889C18.8829 16.2179 19.0002 16.6046 19.0002 17.0001C19.0002 17.5305 18.7894 18.0393 18.4144 18.4143C18.0393 18.7894 17.5306 19.0001 17.0002 19.0001Z" fill=""/>
</svg>
