<svg width="14" height="13" viewBox="0 0 14 13" fill="none" xmlns="http://www.w3.org/2000/svg">
    <path d="M13.0642 4.98162L13.0602 4.98104L9.25574 4.42818L8.99555 4.39037L8.87924 4.15457L7.1922 0.734633C7.18763 0.729044 7.18205 0.724318 7.17574 0.720709L7.18089 0.711699L7.17574 0.720708C7.16677 0.715585 7.15663 0.712891 7.14631 0.712891C7.13598 0.712891 7.12584 0.715585 7.11688 0.720708L7.11173 0.711699L7.11688 0.720709C7.11054 0.724333 7.10494 0.729085 7.10036 0.734705L5.40999 4.15491L5.2936 4.3904L5.03365 4.42818L1.2292 4.98104L1.22873 4.98111C1.22184 4.9821 1.21538 4.985 1.21006 4.98947L0.889081 4.60798L1.21005 4.98948C1.20473 4.99395 1.20077 4.99983 1.19861 5.00644C1.19646 5.01305 1.19619 5.02014 1.19785 5.02689C1.1995 5.0336 1.20298 5.03971 1.2079 5.04456C1.20793 5.04459 1.20797 5.04463 1.208 5.04466L3.96106 7.72734L4.14934 7.91081L4.10492 8.16992L3.45536 11.9593C3.45536 11.9593 3.45536 11.9593 3.45536 11.9593C3.45419 11.9662 3.45496 11.9732 3.45757 11.9796L2.99445 12.1681L3.45757 11.9796C3.4602 11.9861 3.46457 11.9917 3.47019 11.9957C3.47582 11.9998 3.48248 12.0023 3.48942 12.0028C3.49635 12.0033 3.50329 12.0018 3.50945 11.9986L3.50948 11.9986L6.91205 10.21L7.1447 10.0877L7.37734 10.21L10.7799 11.9986L10.7799 11.9986C10.7861 12.0018 10.793 12.0033 10.8 12.0028C10.8069 12.0023 10.8136 11.9998 10.8192 11.9957C10.8248 11.9917 10.8292 11.9861 10.8318 11.9796L11.2949 12.1681L10.8318 11.9796C10.8344 11.9732 10.8352 11.9662 10.834 11.9593L13.0642 4.98162ZM13.0642 4.98162C13.0698 4.98297 13.0751 4.98562 13.0795 4.98937C13.0848 4.99385 13.0888 4.99973 13.0909 5.00634C13.0931 5.01295 13.0933 5.02003 13.0917 5.02678C13.09 5.03353 13.0865 5.03968 13.0815 5.04453L10.3283 7.72734L10.1401 7.91081L10.1845 8.16992L10.834 11.9593L13.0642 4.98162ZM1.1573 4.48623L4.96175 3.93338L6.66437 0.488366C6.71378 0.404475 6.78423 0.334934 6.86875 0.286619C6.95328 0.238305 7.04895 0.212891 7.14631 0.212891C7.24367 0.212891 7.33934 0.238305 7.42386 0.286619L1.1573 4.48623ZM1.1573 4.48623C1.05808 4.50055 0.964856 4.54234 0.888152 4.60688C0.811449 4.67142 0.754329 4.75612 0.723251 4.85143C0.692173 4.94673 0.688376 5.04882 0.71229 5.14617C0.736203 5.24352 0.786874 5.33223 0.858572 5.40229L1.1573 4.48623Z" stroke="#F2C94C"/>
</svg>