<svg width="16" height="16" viewBox="0 0 16 16" fill="none" xmlns="http://www.w3.org/2000/svg">
<path d="M15.3582 6.18791L15.3669 6.18918C15.3947 6.1946 15.4208 6.20705 15.4425 6.22539L15.7649 5.84325L15.4425 6.22539C15.4663 6.24543 15.4839 6.27171 15.4935 6.30126C15.5031 6.33082 15.5043 6.36247 15.4969 6.39264L15.9823 6.51227L15.4969 6.39265C15.4894 6.42271 15.4738 6.45012 15.4517 6.47179C15.4516 6.47187 15.4515 6.47194 15.4515 6.47202L12.0351 9.80101L11.8469 9.98448L11.8913 10.2436L12.6973 14.9455C12.7025 14.9762 12.6991 15.0077 12.6874 15.0365C12.6757 15.0653 12.6561 15.0903 12.631 15.1085C12.6058 15.1268 12.576 15.1377 12.545 15.1399C12.514 15.1422 12.483 15.1357 12.4554 15.1212L12.4554 15.1212L8.23341 12.9019L8.00076 12.7796L7.76811 12.9019L3.54611 15.1212L3.54608 15.1212C3.51855 15.1357 3.48753 15.1422 3.45652 15.1399C3.4255 15.1377 3.39573 15.1268 3.37057 15.1085C3.34541 15.0903 3.32586 15.0653 3.31414 15.0365C3.30243 15.0077 3.299 14.9762 3.30424 14.9456C3.30424 14.9456 3.30424 14.9456 3.30424 14.9455L4.11024 10.2436L4.15465 9.98448L3.96637 9.80101L0.550189 6.47215C0.550131 6.47209 0.550072 6.47203 0.550014 6.47198C0.527866 6.45027 0.512211 6.42282 0.504812 6.3927C0.497394 6.3625 0.498572 6.33083 0.508212 6.30127C0.517853 6.2717 0.535571 6.24543 0.559365 6.22541L0.239312 5.84501L0.559366 6.22541C0.58316 6.20539 0.612079 6.19242 0.642856 6.18798L0.64333 6.18791L5.364 5.50191L5.62395 5.46414L5.74034 5.22865L7.84238 0.975469C7.85894 0.951144 7.88084 0.930855 7.90649 0.916199C7.9358 0.89944 7.96899 0.890625 8.00276 0.890625C8.03653 0.890625 8.06971 0.89944 8.09903 0.916198L8.3463 0.483612L8.09903 0.916199C8.12464 0.930834 8.14652 0.951083 8.16306 0.975361L10.261 5.22831L10.3773 5.4641L10.6375 5.50191L15.3582 6.18791ZM5.29209 5.00711L0.571426 5.69311L5.29209 5.00711Z" stroke="#F2C94C"/>
</svg>