<svg width="16" height="16" viewBox="0 0 16 16" fill="none" xmlns="http://www.w3.org/2000/svg">
    <path d="M15.4301 5.69311L10.7094 5.00711L8.60076 0.732443C8.53945 0.628349 8.45204 0.542059 8.34716 0.482109C8.24228 0.422159 8.12356 0.390625 8.00276 0.390625C7.88195 0.390625 7.76324 0.422159 7.65836 0.482109C7.55348 0.542059 7.46606 0.628349 7.40476 0.732443L5.29209 5.00711L0.571426 5.69311C0.448319 5.71088 0.332639 5.76273 0.237463 5.84281C0.142287 5.92289 0.0714116 6.028 0.0328492 6.14625C-0.00571322 6.2645 -0.0104244 6.39119 0.0192482 6.51198C0.0489209 6.63277 0.111794 6.74285 0.200759 6.82978L3.61743 10.1591L2.81143 14.8611C2.79042 14.9837 2.80413 15.1097 2.85101 15.225C2.89789 15.3402 2.97607 15.44 3.07671 15.5131C3.17735 15.5862 3.29643 15.6297 3.4205 15.6386C3.54456 15.6476 3.66866 15.6217 3.77876 15.5638L8.00076 13.3444L12.2228 15.5638C12.3329 15.6217 12.457 15.6476 12.581 15.6386C12.7051 15.6297 12.8242 15.5862 12.9248 15.5131C13.0254 15.44 13.1036 15.3402 13.1505 15.225C13.1974 15.1097 13.2111 14.9837 13.1901 14.8611L12.3841 10.1591L15.8008 6.82978C15.8897 6.74294 15.9526 6.63296 15.9823 6.51227C16.0121 6.39158 16.0075 6.26497 15.9691 6.14675C15.9306 6.02854 15.8599 5.92341 15.7649 5.84325C15.6699 5.76309 15.5544 5.71108 15.4314 5.69311H15.4301Z" fill="#F2C94C"/>
</svg>