<svg width="602" height="293" viewBox="0 0 602 293" fill="none" xmlns="http://www.w3.org/2000/svg">
<g clip-path="url(#clip0)">
<path opacity="0.18" d="M34.4515 240.598C24.5372 232.951 16.3592 223.293 10.4564 212.262C4.55352 201.231 1.05982 189.078 0.205437 176.601C-0.648945 164.125 1.15539 151.61 5.49956 139.88C9.84374 128.151 16.6291 117.473 25.4087 108.55C38.5359 95.3353 55.5037 86.8401 70.0639 75.3987C95.2434 55.7338 113.888 27.3305 141.977 12.3136C175.798 -5.77807 216.784 -1.00128 253.93 8.02312C291.076 17.0475 328.394 29.9763 366.485 26.7155C389.171 24.7562 411.011 17.0904 433.482 13.3577C455.953 9.62492 480.603 10.2971 499.405 23.3689C526.777 42.519 533.283 81.2195 555.74 106.176C566.617 118.275 581.062 126.885 590.693 140.043C606.185 161.195 605.783 192.959 589.761 213.711C569.239 240.241 532.208 244.445 502.343 259.033C485.719 267.157 470.814 278.87 453.617 285.677C417.475 299.979 376.818 290.669 339.758 279.113C302.698 267.557 264.521 253.656 226.157 259.319C190.329 264.639 158.042 286.707 121.913 290.054C105.146 291.613 85.9999 288.624 75.7533 274.179C64.7328 258.69 49.37 252.04 34.4515 240.598Z" fill="#32AF85"/>
<path d="M44.168 158.636C53.8987 147.838 53.8987 147.838 64.9335 134.88L111.896 80.0332C122.286 68.1484 126.399 62.7567 131.959 54.29H176.385C175.115 66.1934 174.536 78.1601 174.651 90.1302V160.366H180.928C188.126 160.299 195.309 159.721 202.425 158.636V197.937C195.388 197.074 188.304 196.644 181.215 196.65H174.723V207.448C174.516 216.334 175.096 225.221 176.457 234.006H131.802C133.03 225.064 133.61 216.044 133.536 207.018V196.435H72.2996C58.2266 196.435 52.2363 196.65 44.168 197.293V158.636ZM133.751 135.753C133.751 126.028 134.181 114.157 135.055 104.647C130.756 110.696 127.474 115.015 121.641 122.352L90.0413 160.795H133.751V135.753Z" fill="#68E1FD"/>
<path d="M44.168 158.636C53.8987 147.838 53.8987 147.838 64.9335 134.88L111.896 80.0332C122.286 68.1484 126.399 62.7567 131.959 54.29H176.385C175.115 66.1934 174.536 78.1601 174.651 90.1302V160.366H180.928C188.126 160.299 195.309 159.721 202.425 158.636V197.937C195.388 197.074 188.304 196.644 181.215 196.65H174.723V207.448C174.516 216.334 175.096 225.221 176.457 234.006H131.802C133.03 225.064 133.61 216.044 133.536 207.018V196.435H72.2996C58.2266 196.435 52.2363 196.65 44.168 197.293V158.636ZM133.751 135.753C133.751 126.028 134.181 114.157 135.055 104.647C130.756 110.696 127.474 115.015 121.641 122.352L90.0413 160.795H133.751V135.753Z" fill="url(#paint0_linear)"/>
<path d="M284.985 104.475C289.284 105.19 293.282 107.821 297.596 108.765C301.365 109.623 305.335 109.18 309.061 110.496C316.011 112.956 320.526 121.322 321.514 129.717C322.503 138.113 320.741 146.608 318.734 154.76C313.46 176.241 306.295 197.694 293.397 213.983C292.494 215.113 291.405 216.3 290.072 216.272C289.148 216.145 288.283 215.741 287.593 215.113C284.885 213.263 282.408 211.098 280.213 208.663C276.773 204.53 274.781 199.081 273.047 193.675C268.16 178.458 258.831 168.818 257.097 152.686C255.205 135.767 264.477 101.1 284.985 104.475Z" fill="#E9446A"/>
<path d="M271.113 115.315C269.283 114.985 267.395 115.326 265.796 116.273C264.119 117.303 262.67 118.663 261.539 120.272C260.408 121.88 259.618 123.702 259.218 125.627C258.442 129.482 258.302 133.439 258.802 137.34C259.783 148.788 262.008 160.095 265.438 171.063C266.441 174.238 263.575 181.775 265.653 184.378C267.344 186.495 266.498 199.209 268.705 200.782C274.824 205.187 287.536 202.756 293.655 207.161C301.58 212.882 301.05 197.779 299.789 191.558C298.356 184.621 287.593 185.837 279.353 162.411C268.39 131.233 273.922 115.959 271.113 115.315Z" fill="url(#paint1_linear)"/>
<path d="M378.294 157.835C388.025 147.038 388.025 147.038 399.06 134.08L446.022 79.2187C453.352 71.1556 460.059 62.5499 466.085 53.4756H510.511C509.241 65.3837 508.662 77.3552 508.777 89.3301V159.523H515.054C522.227 159.445 529.386 158.867 536.479 157.793V197.094C529.443 196.219 522.359 195.785 515.269 195.792H508.777V206.59C508.569 215.477 509.149 224.364 510.511 233.148H465.928C467.151 224.244 467.73 215.263 467.662 206.276V195.692H406.426C392.353 195.692 386.291 195.907 378.294 196.565V157.835ZM467.877 134.953C467.877 125.227 468.307 113.357 469.166 103.861C464.867 109.896 461.6 114.215 455.753 121.566L424.225 160.009H467.934L467.877 134.953Z" fill="#68E1FD"/>
<path d="M378.294 157.835C388.025 147.038 388.025 147.038 399.06 134.08L446.022 79.2187C453.352 71.1556 460.059 62.5499 466.085 53.4756H510.511C509.241 65.3837 508.662 77.3552 508.777 89.3301V159.523H515.054C522.227 159.445 529.386 158.867 536.479 157.793V197.094C529.443 196.219 522.359 195.785 515.269 195.792H508.777V206.59C508.569 215.477 509.149 224.364 510.511 233.148H465.928C467.151 224.244 467.73 215.263 467.662 206.276V195.692H406.426C392.353 195.692 386.291 195.907 378.294 196.565V157.835ZM467.877 134.953C467.877 125.227 468.307 113.357 469.166 103.861C464.867 109.896 461.6 114.215 455.753 121.566L424.225 160.009H467.934L467.877 134.953Z" fill="url(#paint2_linear)"/>
<path d="M238.266 216.2C231.366 209.412 225.992 201.236 222.502 192.216C216.8 176.353 213.943 159.612 214.061 142.76C214.061 120.092 219.478 96.5511 227.704 82.9501C240.903 60.9111 263.403 48.8262 290.674 48.8262C311.669 48.8262 330.056 55.977 343.255 68.8486C350.155 75.6311 355.529 83.8022 359.019 92.8184C364.732 108.752 367.585 125.566 367.445 142.488C367.445 165.171 362.043 188.926 353.817 202.556C340.833 224.18 318.118 236.308 290.631 236.308C269.422 236.308 251.465 229.357 238.266 216.2ZM258.329 141.044C258.329 179.659 269.364 199.567 290.789 199.567C312.214 199.567 322.819 180.131 322.819 141.687C322.819 104.76 311.569 85.3242 290.574 85.3242C270.296 85.3242 258.387 105.833 258.387 141.044H258.329Z" fill="#68E1FD"/>
<path d="M238.266 216.2C231.366 209.412 225.992 201.236 222.502 192.216C216.8 176.353 213.943 159.612 214.061 142.76C214.061 120.092 219.478 96.5511 227.704 82.9501C240.903 60.9111 263.403 48.8262 290.674 48.8262C311.669 48.8262 330.056 55.977 343.255 68.8486C350.155 75.6311 355.529 83.8022 359.019 92.8184C364.732 108.752 367.585 125.566 367.445 142.488C367.445 165.171 362.043 188.926 353.817 202.556C340.833 224.18 318.118 236.308 290.631 236.308C269.422 236.308 251.465 229.357 238.266 216.2ZM258.329 141.044C258.329 179.659 269.364 199.567 290.789 199.567C312.214 199.567 322.819 180.131 322.819 141.687C322.819 104.76 311.569 85.3242 290.574 85.3242C270.296 85.3242 258.387 105.833 258.387 141.044H258.329Z" fill="url(#paint3_linear)"/>
<path d="M49.0264 157.835C58.7714 147.038 58.7714 147.038 69.8062 134.08L116.769 79.2187C124.098 71.1556 130.805 62.5499 136.832 53.4756H181.258C179.987 65.3837 179.408 77.3552 179.524 89.3301V159.523H185.801C192.998 159.449 200.181 158.87 207.297 157.793V197.094C200.262 196.219 193.178 195.785 186.088 195.792H179.596V206.59C179.387 215.477 179.968 224.364 181.33 233.148H136.674C137.898 224.244 138.477 215.263 138.408 206.276V195.692H77.158C63.0994 195.692 57.0947 195.907 49.0264 196.565V157.835ZM138.623 134.953C138.623 125.227 139.053 113.357 139.913 103.861C135.614 109.896 132.347 114.215 126.499 121.566L94.9714 160.009H138.623V134.953Z" fill="#32AF85"/>
<path d="M243.125 217.001C236.225 210.218 230.851 202.047 227.361 193.031C221.644 177.171 218.773 160.43 218.877 143.576C218.877 120.907 224.294 97.3666 232.52 83.7513C245.719 61.7266 268.218 49.6416 295.49 49.6416C316.47 49.6416 334.871 56.7925 348.07 69.6641C354.974 76.4432 360.349 84.6153 363.834 93.6338C369.58 109.575 372.452 126.406 372.318 143.347C372.318 166.015 366.915 189.785 358.689 203.414C345.706 225.01 322.977 237.095 295.504 237.095C274.295 237.08 256.338 230.173 243.125 217.001ZM263.303 141.917C263.303 180.531 274.337 200.439 295.762 200.439C316.972 200.439 327.792 181.003 327.792 142.574C327.792 105.633 316.528 86.1969 295.547 86.1969C275.154 86.1397 263.303 106.648 263.303 141.917Z" fill="#32AF85"/>
<path d="M330.802 66.7607C332.414 67.9334 333.643 69.5557 334.334 71.4235C335.025 73.2913 335.147 75.3213 334.685 77.2582C337.389 77.5159 340.015 78.3058 342.41 79.5823C344.806 80.8588 346.925 82.5965 348.644 84.6951C351.724 88.7513 353.588 93.5966 354.018 98.6679C354.431 103.71 354.32 108.78 353.688 113.799C353.617 115.534 353.259 117.244 352.628 118.862C351.886 120.265 350.843 121.487 349.571 122.439C348.3 123.391 346.833 124.05 345.276 124.368C342.163 124.988 338.975 125.138 335.817 124.812L328.294 124.411C328.046 124.417 327.8 124.363 327.577 124.254C327.427 124.126 327.305 123.968 327.219 123.791C327.132 123.614 327.084 123.421 327.076 123.224C326.56 120.149 325.771 118.805 325.213 115.73C323.816 109.238 321.083 103.106 317.187 97.7241C316.497 96.9195 316.006 95.9641 315.754 94.9352C315.668 93.5128 315.986 92.0949 316.671 90.8449C317.69 88.3856 318.533 85.8574 319.194 83.2793C319.801 80.1939 320.591 77.1471 321.558 74.1548C322.543 71.1303 324.576 68.5548 327.291 66.8895" fill="url(#paint4_linear)"/>
<path d="M327.29 156.59C327.29 156.59 354.834 159.021 367.417 142.288C372.433 135.652 361.254 104.389 361.254 104.389L348.543 127.1L328.48 131.648L327.29 156.59Z" fill="url(#paint5_linear)"/>
<path d="M383.567 157.835C393.298 147.038 393.298 147.038 404.333 134.08L451.295 79.2187C461.685 67.3483 465.798 61.9422 471.359 53.4756H515.785C514.527 65.3987 513.962 77.3846 514.094 89.373V159.566H520.371C527.544 159.488 534.703 158.91 541.795 157.835V197.137C534.759 196.262 527.676 195.827 520.586 195.835H514.094V206.633C513.885 215.52 514.466 224.407 515.828 233.191H471.201C472.426 224.273 473.006 215.277 472.935 206.276V195.692H411.699C397.626 195.692 391.564 195.907 383.567 196.565V157.835ZM473.15 134.953C473.15 125.227 473.58 113.357 474.454 103.861C470.155 109.896 466.873 114.215 461.04 121.566L429.441 160.009H473.15V134.953Z" fill="#32AF85"/>
<path d="M262.658 107.677C261.916 107.947 261.197 108.277 260.508 108.664C259.861 108.991 259.294 109.454 258.846 110.023C258.627 110.311 258.486 110.65 258.435 111.008C258.385 111.366 258.428 111.731 258.559 112.068C258.85 112.516 259.27 112.865 259.763 113.072C260.256 113.279 260.801 113.332 261.325 113.226C263.088 113.055 264.721 112.182 266.484 111.882C268.247 111.581 269.909 110.366 268.662 108.492C267.416 106.619 264.42 107.019 262.658 107.677Z" fill="#F7AF87"/>
<path d="M268.275 111.882C265.695 111.21 263.001 112.34 260.679 113.641C260.132 113.907 259.644 114.282 259.246 114.742C259.007 114.932 258.836 115.193 258.756 115.487C258.676 115.782 258.693 116.094 258.803 116.378C258.913 116.662 259.112 116.904 259.369 117.067C259.627 117.231 259.93 117.308 260.235 117.288C260.763 117.341 261.295 117.307 261.812 117.188L265.38 116.573C266.21 116.476 267.018 116.244 267.773 115.886C269.393 114.942 270.769 112.497 268.275 111.882Z" fill="#F7AF87"/>
<path d="M263.303 116.617C262.563 116.898 261.844 117.233 261.153 117.618C260.499 117.966 259.931 118.454 259.491 119.048C259.275 119.336 259.136 119.672 259.086 120.027C259.036 120.382 259.077 120.744 259.204 121.079C259.495 121.527 259.915 121.877 260.408 122.084C260.901 122.29 261.446 122.344 261.97 122.238C263.733 122.066 265.366 121.194 267.129 120.893C268.892 120.593 270.554 119.392 269.307 117.504C268.06 115.616 265.037 115.959 263.303 116.617Z" fill="#F7AF87"/>
<path d="M268.863 120.22C266.211 120.006 263.761 121.65 261.697 123.281C261.196 123.647 260.772 124.109 260.45 124.639C260.253 124.87 260.135 125.156 260.112 125.458C260.088 125.76 260.162 126.061 260.321 126.319C260.48 126.576 260.717 126.777 260.998 126.891C261.279 127.006 261.589 127.029 261.883 126.956C262.407 126.917 262.92 126.792 263.402 126.584L266.799 125.34C267.604 125.099 268.365 124.727 269.049 124.239C270.468 123.066 271.428 120.463 268.863 120.22Z" fill="#F7AF87"/>
<path d="M344.817 79.8461C340.639 77.8588 336.043 76.9023 331.418 77.0572C330.636 77.0196 329.854 77.1462 329.125 77.4291C328.768 77.5846 328.464 77.8405 328.25 78.1656C328.036 78.4907 327.922 78.8709 327.921 79.2597C328.06 79.9382 328.449 80.5402 329.01 80.9473C330.703 82.4832 332.603 83.7735 334.656 84.7802C335.276 85.0243 335.841 85.3889 336.319 85.8528C336.552 86.0876 336.703 86.3921 336.747 86.7201C336.791 87.048 336.726 87.3813 336.562 87.6691C336.09 88.327 335 88.3556 334.642 89.0993C334.169 90.0289 335.359 90.9443 336.39 91.1159C337.487 91.3032 338.614 91.1997 339.658 90.8155C340.389 90.4402 341.188 90.2164 342.008 90.1577C342.818 90.3309 343.581 90.6774 344.244 91.1731C346.508 92.4602 353.545 92.5031 353.1 88.5845C352.685 84.9518 347.712 81.3478 344.817 79.8461Z" fill="#F7AF87"/>
<path d="M310.193 111.383C310.193 111.383 341.879 124.412 345.505 123.739C349.131 123.067 343.269 91.8609 343.269 91.8609L354.075 86.9268C354.075 86.9268 378.437 135.124 358.489 142.132C346.152 146.251 332.786 146.11 320.54 141.731L310.193 111.383Z" fill="#E9446A"/>
<path d="M327.046 93.2913C326.935 96.091 326.272 98.8415 325.097 101.386C323.947 103.282 322.37 104.885 320.493 106.069C318.615 107.253 316.487 107.985 314.277 108.208C312.667 108.312 311.067 108.536 309.491 108.88C308.76 109.03 308.078 109.357 307.505 109.834C306.933 110.311 306.487 110.921 306.209 111.612C304.934 114.701 303.615 117.833 299.502 116.789C299.116 116.704 298.741 116.574 298.384 116.403C297.091 115.797 295.928 114.947 294.959 113.9C293.752 112.681 292.703 111.317 291.835 109.838C291.386 109.154 291.084 108.385 290.947 107.579C290.862 106.588 290.979 105.591 291.29 104.647C292.724 98.9262 292.953 92.4475 294.988 86.8698C297.071 81.2158 301.051 76.4556 306.252 73.3976C311.397 70.4085 318.548 70.3656 322.919 74.4416C325.31 76.8308 326.825 79.9546 327.218 83.3087C327.562 86.6311 327.504 89.9827 327.046 93.2913Z" fill="#F7AF87"/>
<path d="M292.193 86.1382C292.466 83.4495 292.451 80.7179 292.982 78.0721C293.383 75.3689 294.74 72.8982 296.808 71.1071C297.327 70.6955 297.907 70.3674 298.528 70.1346C299.087 69.9344 299.674 69.8199 300.247 69.6626C301.931 69.0631 303.538 68.2662 305.034 67.2885C307.302 65.9321 309.782 64.9652 312.371 64.4282C314.121 64.1611 315.89 64.0368 317.659 64.0563C320.908 63.9991 324.171 63.9705 327.448 63.9705C328.217 63.9129 328.988 64.0404 329.697 64.3424C330.476 64.8222 331.045 65.5784 331.288 66.459C331.912 68.4325 331.912 70.5496 331.288 72.523C330.654 74.4753 329.813 76.3546 328.78 78.1293C328.277 79.2477 327.567 80.2616 326.688 81.1183C325.928 79.8026 325.255 78.4439 324.567 77.0709C322.374 79.3449 318.921 79.9313 315.768 79.6881C312.615 79.445 309.52 78.6298 306.367 78.5869C305.617 78.5076 304.859 78.5767 304.136 78.7902C303.413 79.0037 302.739 79.3574 302.153 79.8312C301.447 80.6525 300.955 81.6349 300.72 82.6915C300.057 85.0457 299.517 87.4325 299.101 89.8424C298.728 89.1416 297.224 87.311 296.435 87.3396C296.208 87.3615 295.987 87.43 295.788 87.5407C295.588 87.6514 295.413 87.802 295.275 87.9832C293.97 89.4133 294.615 94.6621 295.819 96.1781C296.06 96.4078 296.242 96.6924 296.349 97.0076C296.374 97.2183 296.356 97.4317 296.297 97.6355C296.238 97.8393 296.139 98.0293 296.005 98.1946C295.674 98.5847 295.254 98.8897 294.78 99.0838C294.306 99.278 293.793 99.3556 293.283 99.3102C292.021 99.3102 291.778 96.9075 291.649 96.0207C291.119 92.717 291.878 89.3847 292.193 86.1382Z" fill="#606060"/>
<path d="M297.224 92.1749C297.047 91.8054 296.968 91.3966 296.995 90.9878C297.024 90.5782 296.981 90.1666 296.866 89.7722C296.735 89.4106 296.474 89.1101 296.135 88.9284C296.037 88.9002 295.932 88.9002 295.834 88.9284C295.751 88.9635 295.677 89.0183 295.62 89.0881C295.562 89.1578 295.523 89.2405 295.504 89.3288C295.003 90.8964 295.059 92.5886 295.662 94.1199C295.742 94.3945 295.882 94.6477 296.073 94.8606C296.264 95.0735 296.501 95.2408 296.765 95.3499C296.999 95.3966 297.241 95.3844 297.468 95.3145C297.696 95.2446 297.903 95.1191 298.07 94.9494C298.295 94.7113 298.449 94.4151 298.515 94.0942C298.581 93.7733 298.556 93.4405 298.442 93.1331C298.199 92.561 297.525 92.6898 297.224 92.1749Z" fill="url(#paint6_linear)"/>
<path d="M309.491 108.852C308.76 109.002 308.078 109.329 307.506 109.806C306.933 110.283 306.488 110.893 306.209 111.584C304.934 114.673 303.615 117.805 299.502 116.761C299.116 116.676 298.741 116.546 298.384 116.375C298.037 116.078 297.754 115.713 297.553 115.302C297.369 114.82 297.285 114.305 297.305 113.789C297.324 113.273 297.448 112.766 297.668 112.299C298.165 111.097 299.001 110.065 300.075 109.329C301.148 108.592 302.413 108.183 303.716 108.151C304.81 108.202 305.899 108.345 306.969 108.58C307.628 108.666 308.402 108.58 309.004 108.652C309.179 108.683 309.345 108.752 309.491 108.852Z" fill="url(#paint7_linear)"/>
</g>
<defs>
<linearGradient id="paint0_linear" x1="-93.5381" y1="11.9998" x2="375.959" y2="275.253" gradientUnits="userSpaceOnUse">
<stop stop-opacity="0"/>
<stop offset="0.99"/>
</linearGradient>
<linearGradient id="paint1_linear" x1="9382.1" y1="15476.2" x2="3904.38" y2="16995.1" gradientUnits="userSpaceOnUse">
<stop stop-opacity="0"/>
<stop offset="0.99"/>
</linearGradient>
<linearGradient id="paint2_linear" x1="67663.8" y1="44829.8" x2="17343.8" y2="7062.27" gradientUnits="userSpaceOnUse">
<stop stop-opacity="0"/>
<stop offset="0.99"/>
</linearGradient>
<linearGradient id="paint3_linear" x1="45601.4" y1="31397.6" x2="-2597.73" y2="29797.9" gradientUnits="userSpaceOnUse">
<stop stop-opacity="0"/>
<stop offset="0.99"/>
</linearGradient>
<linearGradient id="paint4_linear" x1="10302.2" y1="6201.86" x2="5336.84" y2="9718.99" gradientUnits="userSpaceOnUse">
<stop stop-opacity="0"/>
<stop offset="0.99"/>
</linearGradient>
<linearGradient id="paint5_linear" x1="10534.7" y1="9540.1" x2="9682.71" y2="6358.65" gradientUnits="userSpaceOnUse">
<stop stop-opacity="0"/>
<stop offset="0.99"/>
</linearGradient>
<linearGradient id="paint6_linear" x1="994.792" y1="919.462" x2="1004.31" y2="917.732" gradientUnits="userSpaceOnUse">
<stop stop-opacity="0"/>
<stop offset="0.99"/>
</linearGradient>
<linearGradient id="paint7_linear" x1="2824.36" y1="1327.91" x2="2960.75" y2="1482.47" gradientUnits="userSpaceOnUse">
<stop stop-opacity="0"/>
<stop offset="0.99"/>
</linearGradient>
<clipPath id="clip0">
<rect width="602" height="293" fill="white"/>
</clipPath>
</defs>
</svg>
