<svg viewBox="0 0 162 39" fill="none" 
  xmlns="http://www.w3.org/2000/svg">
  <path d="M15.8164 22.4414C15.8164 21.4388 15.4583 20.6576 14.7422 20.0977C14.0391 19.5378 12.7956 18.9583 11.0117 18.3594C9.22786 17.7604 7.76953 17.181 6.63672 16.6211C2.95182 14.8112 1.10938 12.3242 1.10938 9.16016C1.10938 7.58464 1.5651 6.19792 2.47656 5C3.40104 3.78906 4.70312 2.85156 6.38281 2.1875C8.0625 1.51042 9.95052 1.17188 12.0469 1.17188C14.0911 1.17188 15.9206 1.53646 17.5352 2.26562C19.1628 2.99479 20.4258 4.03646 21.3242 5.39062C22.2227 6.73177 22.6719 8.26823 22.6719 10H15.8359C15.8359 8.84115 15.4779 7.94271 14.7617 7.30469C14.0586 6.66667 13.1016 6.34766 11.8906 6.34766C10.6667 6.34766 9.69661 6.62109 8.98047 7.16797C8.27734 7.70182 7.92578 8.38542 7.92578 9.21875C7.92578 9.94792 8.31641 10.612 9.09766 11.2109C9.87891 11.7969 11.2526 12.4089 13.2188 13.0469C15.1849 13.6719 16.7995 14.349 18.0625 15.0781C21.1354 16.849 22.6719 19.2904 22.6719 22.4023C22.6719 24.8893 21.7344 26.8424 19.8594 28.2617C17.9844 29.681 15.4128 30.3906 12.1445 30.3906C9.83984 30.3906 7.75 29.9805 5.875 29.1602C4.01302 28.3268 2.60677 27.194 1.65625 25.7617C0.71875 24.3164 0.25 22.6562 0.25 20.7812H7.125C7.125 22.3047 7.51562 23.431 8.29688 24.1602C9.09115 24.8763 10.3737 25.2344 12.1445 25.2344C13.2773 25.2344 14.1693 24.9935 14.8203 24.5117C15.4844 24.0169 15.8164 23.3268 15.8164 22.4414ZM34.8203 25.3125C35.7448 25.3125 36.4609 25.0651 36.9688 24.5703C37.4766 24.0625 37.724 23.3594 37.7109 22.4609H43.8828C43.8828 24.7786 43.0495 26.6797 41.3828 28.1641C39.7292 29.6484 37.5938 30.3906 34.9766 30.3906C31.9036 30.3906 29.4818 29.4271 27.7109 27.5C25.9401 25.5729 25.0547 22.9036 25.0547 19.4922V19.2188C25.0547 17.0833 25.4453 15.2018 26.2266 13.5742C27.0208 11.9336 28.1602 10.6771 29.6445 9.80469C31.1289 8.91927 32.8867 8.47656 34.918 8.47656C37.6654 8.47656 39.8464 9.23828 41.4609 10.7617C43.0755 12.2852 43.8828 14.349 43.8828 16.9531H37.7109C37.7109 15.8594 37.444 15.0195 36.9102 14.4336C36.3763 13.8477 35.6602 13.5547 34.7617 13.5547C33.056 13.5547 32.0599 14.6419 31.7734 16.8164C31.6823 17.5065 31.6367 18.457 31.6367 19.668C31.6367 21.7904 31.8906 23.2617 32.3984 24.082C32.9062 24.9023 33.7135 25.3125 34.8203 25.3125ZM53.1016 11.1328C54.5078 9.36198 56.3047 8.47656 58.4922 8.47656C60.8229 8.47656 62.5807 9.16667 63.7656 10.5469C64.9505 11.9271 65.556 13.9648 65.582 16.6602V30H58.9805V16.8164C58.9805 15.6966 58.7526 14.8763 58.2969 14.3555C57.8411 13.8216 57.0664 13.5547 55.9727 13.5547C54.6185 13.5547 53.6615 13.9844 53.1016 14.8438V30H46.5195V0H53.1016V11.1328ZM68.4141 19.2383C68.4141 17.1289 68.8242 15.2539 69.6445 13.6133C70.4648 11.9596 71.6432 10.6901 73.1797 9.80469C74.7161 8.91927 76.5195 8.47656 78.5898 8.47656C81.7539 8.47656 84.2474 9.45964 86.0703 11.4258C87.8932 13.3789 88.8047 16.0417 88.8047 19.4141V19.6484C88.8047 22.9427 87.8867 25.5599 86.0508 27.5C84.2279 29.4271 81.7539 30.3906 78.6289 30.3906C75.6211 30.3906 73.2057 29.4922 71.3828 27.6953C69.5599 25.8854 68.5768 23.4375 68.4336 20.3516L68.4141 19.2383ZM74.9961 19.6484C74.9961 21.6016 75.3021 23.0339 75.9141 23.9453C76.526 24.8568 77.431 25.3125 78.6289 25.3125C80.9727 25.3125 82.1706 23.5091 82.2227 19.9023V19.2383C82.2227 15.4492 81.0117 13.5547 78.5898 13.5547C76.3893 13.5547 75.1979 15.1888 75.0156 18.457L74.9961 19.6484ZM90.875 19.2383C90.875 17.1289 91.2852 15.2539 92.1055 13.6133C92.9258 11.9596 94.1042 10.6901 95.6406 9.80469C97.1771 8.91927 98.9805 8.47656 101.051 8.47656C104.215 8.47656 106.708 9.45964 108.531 11.4258C110.354 13.3789 111.266 16.0417 111.266 19.4141V19.6484C111.266 22.9427 110.348 25.5599 108.512 27.5C106.689 29.4271 104.215 30.3906 101.09 30.3906C98.082 30.3906 95.6667 29.4922 93.8438 27.6953C92.0208 25.8854 91.0378 23.4375 90.8945 20.3516L90.875 19.2383ZM97.457 19.6484C97.457 21.6016 97.763 23.0339 98.375 23.9453C98.987 24.8568 99.8919 25.3125 101.09 25.3125C103.434 25.3125 104.632 23.5091 104.684 19.9023V19.2383C104.684 15.4492 103.473 13.5547 101.051 13.5547C98.8503 13.5547 97.6589 15.1888 97.4766 18.457L97.457 19.6484ZM121.109 30H114.508V0H121.109V30ZM132.125 30H125.523V0H132.125V30ZM144.645 20.7812L148.16 8.86719H155.211L146.598 33.5352L146.227 34.4336C145.003 37.168 142.841 38.5352 139.742 38.5352C138.883 38.5352 137.978 38.4049 137.027 38.1445V33.4375H137.887C138.811 33.4375 139.514 33.3008 139.996 33.0273C140.491 32.7669 140.855 32.2917 141.09 31.6016L141.617 30.1953L134.273 8.86719H141.305L144.645 20.7812ZM157.73 23.6133C158.772 23.6133 159.638 23.9258 160.328 24.5508C161.018 25.1628 161.363 25.9505 161.363 26.9141C161.363 27.8776 161.018 28.6719 160.328 29.2969C159.638 29.9089 158.772 30.2148 157.73 30.2148C156.676 30.2148 155.803 29.9023 155.113 29.2773C154.436 28.6523 154.098 27.8646 154.098 26.9141C154.098 25.9635 154.436 25.1758 155.113 24.5508C155.803 23.9258 156.676 23.6133 157.73 23.6133Z" fill="#32AF85"/>
</svg>
